{
    "asset" : {
        "generator" : "Khronos glTF Blender I/O v1.7.33",
        "version" : "2.0"
    },
    "scene" : 0,
    "scenes" : [
        {
            "name" : "Scene",
            "nodes" : [
                0
            ]
        }
    ],
    "nodes" : [
        {
            "mesh" : 0,
            "name" : "Plane",
            "rotation" : [
                0.5,
                -0.5,
                0.5,
                0.4999999701976776
            ],
            "translation" : [
                0,
                -1.4355733394622803,
                -0.6875885725021362
            ]
        }
    ],
    "materials" : [
        {
            "doubleSided" : true,
            "name" : "gold.002",
            "pbrMetallicRoughness" : {
                "roughnessFactor" : 0.12727268040180206
            }
        },
        {
            "doubleSided" : true,
            "emissiveFactor" : [
                1,
                1,
                1
            ],
            "name" : "lava.001",
            "pbrMetallicRoughness" : {
                "baseColorFactor" : [
                    0,
                    0,
                    0,
                    1
                ],
                "metallicFactor" : 0.6515151262283325,
                "roughnessFactor" : 0.803030252456665
            }
        },
        {
            "doubleSided" : true,
            "emissiveFactor" : [
                1,
                1,
                1
            ],
            "name" : "Material",
            "pbrMetallicRoughness" : {
                "baseColorFactor" : [
                    0,
                    0,
                    0,
                    1
                ],
                "metallicFactor" : 0.6515151262283325,
                "roughnessFactor" : 0.803030252456665
            }
        }
    ],
    "meshes" : [
        {
            "name" : "Plane.001",
            "primitives" : [
                {
                    "attributes" : {
                        "POSITION" : 0,
                        "NORMAL" : 1,
                        "TEXCOORD_0" : 2
                    },
                    "indices" : 3,
                    "material" : 0
                },
                {
                    "attributes" : {
                        "POSITION" : 4,
                        "NORMAL" : 5,
                        "TEXCOORD_0" : 6
                    },
                    "indices" : 7,
                    "material" : 1
                },
                {
                    "attributes" : {
                        "POSITION" : 8,
                        "NORMAL" : 9,
                        "TEXCOORD_0" : 10
                    },
                    "indices" : 11,
                    "material" : 2
                }
            ]
        }
    ],
    "accessors" : [
        {
            "bufferView" : 0,
            "componentType" : 5126,
            "count" : 252,
            "max" : [
                2.137730836868286,
                0.7053475975990295,
                1.2601069211959839
            ],
            "min" : [
                -1.592266321182251,
                0,
                -2.289048671722412
            ],
            "type" : "VEC3"
        },
        {
            "bufferView" : 1,
            "componentType" : 5126,
            "count" : 252,
            "type" : "VEC3"
        },
        {
            "bufferView" : 2,
            "componentType" : 5126,
            "count" : 252,
            "type" : "VEC2"
        },
        {
            "bufferView" : 3,
            "componentType" : 5123,
            "count" : 1200,
            "type" : "SCALAR"
        },
        {
            "bufferView" : 4,
            "componentType" : 5126,
            "count" : 207,
            "max" : [
                1.7830450534820557,
                0.817173957824707,
                1.2878755331039429
            ],
            "min" : [
                -1.592266321182251,
                0,
                -2.289048671722412
            ],
            "type" : "VEC3"
        },
        {
            "bufferView" : 5,
            "componentType" : 5126,
            "count" : 207,
            "type" : "VEC3"
        },
        {
            "bufferView" : 6,
            "componentType" : 5126,
            "count" : 207,
            "type" : "VEC2"
        },
        {
            "bufferView" : 7,
            "componentType" : 5123,
            "count" : 843,
            "type" : "SCALAR"
        },
        {
            "bufferView" : 8,
            "componentType" : 5126,
            "count" : 598,
            "max" : [
                -0.9110153317451477,
                0.3255870044231415,
                -1.8521512746810913
            ],
            "min" : [
                -1.2108579874038696,
                0,
                -2.151994228363037
            ],
            "type" : "VEC3"
        },
        {
            "bufferView" : 9,
            "componentType" : 5126,
            "count" : 598,
            "type" : "VEC3"
        },
        {
            "bufferView" : 10,
            "componentType" : 5126,
            "count" : 598,
            "type" : "VEC2"
        },
        {
            "bufferView" : 11,
            "componentType" : 5123,
            "count" : 2982,
            "type" : "SCALAR"
        }
    ],
    "bufferViews" : [
        {
            "buffer" : 0,
            "byteLength" : 3024,
            "byteOffset" : 0
        },
        {
            "buffer" : 0,
            "byteLength" : 3024,
            "byteOffset" : 3024
        },
        {
            "buffer" : 0,
            "byteLength" : 2016,
            "byteOffset" : 6048
        },
        {
            "buffer" : 0,
            "byteLength" : 2400,
            "byteOffset" : 8064
        },
        {
            "buffer" : 0,
            "byteLength" : 2484,
            "byteOffset" : 10464
        },
        {
            "buffer" : 0,
            "byteLength" : 2484,
            "byteOffset" : 12948
        },
        {
            "buffer" : 0,
            "byteLength" : 1656,
            "byteOffset" : 15432
        },
        {
            "buffer" : 0,
            "byteLength" : 1686,
            "byteOffset" : 17088
        },
        {
            "buffer" : 0,
            "byteLength" : 7176,
            "byteOffset" : 18776
        },
        {
            "buffer" : 0,
            "byteLength" : 7176,
            "byteOffset" : 25952
        },
        {
            "buffer" : 0,
            "byteLength" : 4784,
            "byteOffset" : 33128
        },
        {
            "buffer" : 0,
            "byteLength" : 5964,
            "byteOffset" : 37912
        }
    ],
    "buffers" : [
        {
            "byteLength" : 43876,
            "uri" : "data:application/octet-stream;base64,"
        }
    ]
}
